<?xml version="1.0" encoding="UTF-8"?>
<svg id="Lag_1" data-name="Lag 1" xmlns="http://www.w3.org/2000/svg" viewBox="0 0 390 370">
  <defs>
    <style>
      .cls-1 {
        fill: #f1f1f1;
      }
    </style>
  </defs>
  <path class="cls-1" d="M389.47,187.37v6.63l-3.27,3.19L100.31,345.5c-2.02,1.05-4.05-.06-4.84,1.66h-5.73c-6.87-2.78-11.88-6.74-15.43-13.7l-14.52-28.44c-1.41-2.75-1.07-5.29.68-7.92,9.22-13.92,10.34-31.35,1.9-46.56-7.18-12.95-21.53-22.36-37.94-22.6-2.73-.04-4.96-1.21-6.19-3.52L-.53,189.16v-11c3.22-6.12,6.9-10.11,13.5-13.53L293.91,18.9c3.66-1.9,7.76.26,9.35,3.31l11.95,22.97c4.7,9.03-10.88,9.4-5.26,18.87,4.91,8.27,13.34-3.12,17.88,5.59l12.06,23.17c4.83,9.27-10.55,9.87-5.38,18.76,5.25,9.03,13.49-3.11,18.32,6.23l11.52,22.29c4.66,9.02-10.98,9.35-5.27,18.83,5.01,8.31,12.48-3.01,17.51,5.09,4.8,7.74,7.66,16.35,12.9,23.37ZM367.23,174.82c-9.61,1.11-16.99-4.21-20.33-11.42-3.45-7.44-1.87-15.6,3.64-21.96l-7.07-13.39c-9.06.85-16.95-3.58-20.56-10.82-3.83-7.66-2.28-16,3.26-22.82l-7.58-14.3c-9.15.98-16.93-3.66-20.56-10.96-3.78-7.6-2.09-15.86,3.35-22.67l-7.18-13.22L16.25,177.47c-3.61,1.87-4.78,5.86-3.14,9.05l14.75,28.66c19.8,1.48,36.84,13.12,45.67,28.97,10.47,18.78,9.57,39.78-.79,57.81l15.02,28.81c1.54,2.95,5.46,3.95,8.64,2.3l278.37-144.45c-2.42-4.96-4.09-9.58-7.53-13.8Z"/>
</svg>