<?xml version="1.0" encoding="UTF-8"?>
<svg id="Lag_1" data-name="Lag 1" xmlns="http://www.w3.org/2000/svg" viewBox="0 0 390 370">
  <defs>
    <style>
      .cls-1 {
        fill: none;
        stroke: #f1f1f1;
        stroke-miterlimit: 10;
        stroke-width: 13px;
      }
    </style>
  </defs>
  <circle class="cls-1" cx="276.54" cy="149.47" r="48.25"/>
  <path class="cls-1" d="M271.62,218.14c-36.88,1.68-69.59,23.4-87.25,54.92-19.58-16.06-44.59-25.23-70.92-24.03-54.4,2.48-99.73,48.56-101.07,105.36-.03,1.47,1.14,2.69,2.62,2.69h206.74c1.48,0,2.65-1.22,2.62-2.7-.25-9.79-1.82-19.24-4.5-28.19h160.06c1.48,0,2.65-1.22,2.62-2.7-1.56-60.52-53.02-107.99-110.9-105.35Z"/>
  <circle class="cls-1" cx="118.37" cy="180.35" r="48.25"/>
  <path class="cls-1" d="M221.74,357.08c1.48,0,2.65-1.22,2.62-2.7-1.56-60.52-53.02-107.99-110.9-105.35-54.4,2.48-99.73,48.56-101.07,105.36-.03,1.47,1.14,2.69,2.62,2.69h206.74Z"/>
</svg>