<?xml version="1.0" encoding="UTF-8"?>
<svg id="Lag_1" data-name="Lag 1" xmlns="http://www.w3.org/2000/svg" viewBox="0 0 390 370">
  <defs>
    <style>
      .cls-1 {
        fill: none;
        stroke: #f1f1f1;
        stroke-miterlimit: 10;
        stroke-width: 13px;
      }
    </style>
  </defs>
  <rect class="cls-1" x="7.76" y="60.89" width="374.48" height="292.52" rx="11.29" ry="11.29"/>
  <rect class="cls-1" x="71.2" y="16.55" width=".68" height="72.5" rx=".26" ry=".26" transform="translate(143.08 105.61) rotate(180)"/>
  <rect class="cls-1" x="194.7" y="19.39" width=".52" height="69.66" rx=".26" ry=".26"/>
  <rect class="cls-1" x="317" y="19.39" width=".52" height="69.66" rx=".26" ry=".26" transform="translate(634.52 108.45) rotate(180)"/>
  <rect class="cls-1" x="45.6" y="133.13" width="67.87" height="69.45" rx="2" ry="2"/>
  <rect class="cls-1" x="160.77" y="133.13" width="67.87" height="69.45" rx="2" ry="2"/>
  <rect class="cls-1" x="275.93" y="133.13" width="67.87" height="69.45" rx="2" ry="2"/>
  <rect class="cls-1" x="45.6" y="240.74" width="67.87" height="69.45" rx="2" ry="2"/>
  <rect class="cls-1" x="160.77" y="240.74" width="67.87" height="69.45" rx="2" ry="2"/>
  <path class="cls-1" d="M338.71,307.61l-.06.06c-.1.11-.27.11-.37,0l-57.39-63.81c-.1-.11-.1-.3,0-.41l.06-.06c.1-.11.27-.11.37,0l57.39,63.81c.1.11.1.3,0,.41Z"/>
  <path class="cls-1" d="M281.02,307.47l.06.06c.1.11.27.11.37,0l57.39-63.81c.1-.11.1-.3,0-.41l-.06-.06c-.1-.11-.27-.11-.37,0l-57.39,63.81c-.1.11-.1.3,0,.41Z"/>
</svg>