<?xml version="1.0" encoding="UTF-8"?>
<svg id="Lag_1" data-name="Lag 1" xmlns="http://www.w3.org/2000/svg" viewBox="0 0 390 370">
  <defs>
    <style>
      .cls-1 {
        fill: #f1f1f1;
      }
    </style>
  </defs>
  <path class="cls-1" d="M122.65,189.61c-.35,17.28-.32,34.65.08,52.09l43.3.17-.07,123.23C70.77,350.13,5.08,264.31,13.15,170.25,21.25,75.92,101.04,3.52,195.73,4.47c94.59.95,172.88,74.84,179.16,169.37,6.25,94.06-61.31,178.65-156.27,191.7l-.07-123.64,38.86-.25,7.39-52.32-46.49-.19.2-39.08c.05-8.87,7.91-15.8,16.48-15.84l29.85-.14v-44.92s-49.4.21-49.4.21c-15.82.07-29.88,8.21-38.97,20.95-7.71,10.81-10.52,23.37-10.5,36.64l.05,42.05-43.38.6Z"/>
  <path class="cls-1" d="M122.73,241.7l-.9-50.65c0-.92.23-1.43.82-1.44l.08,52.09Z"/>
</svg>