<?xml version="1.0" encoding="UTF-8"?>
<svg id="Lag_1" data-name="Lag 1" xmlns="http://www.w3.org/2000/svg" viewBox="0 0 390 370">
  <defs>
    <style>
      .cls-1 {
        fill: #f1f1f1;
      }
    </style>
  </defs>
  <path class="cls-1" d="M375.63,185c0,100.03-81.09,181.13-181.13,181.13S13.38,285.03,13.38,185,94.47,3.87,194.51,3.87s181.13,81.09,181.13,181.13ZM137.46,101.97c0-14.19-11.5-25.7-25.7-25.7s-25.7,11.5-25.7,25.7,11.5,25.7,25.7,25.7,25.7-11.5,25.7-25.7ZM259.08,216.5l-.08,77.11,43.9.11-.02-95.63c-.5-9.07-3.66-16.95-7.55-24.89-3.29-6.7-7.75-11.69-13.68-16.01-25.74-18.74-62.37-12.38-81.38,12.27l-.29-20.43-41,.04v144.59s43.7-.02,43.7-.02l.02-79.33c1.18-8.52,4.1-16.53,11.08-21.7,8.09-5.99,19.03-7.07,28.47-4.06,12.24,3.9,17.4,15.6,16.83,27.95ZM134.1,149.03h-44.73v144.64h44.73v-144.64Z"/>
</svg>