<?xml version="1.0" encoding="UTF-8"?>
<svg id="Lag_1" data-name="Lag 1" xmlns="http://www.w3.org/2000/svg" viewBox="0 0 390 370">
  <defs>
    <style>
      .cls-1 {
        fill: #f1f1f1;
      }
    </style>
  </defs>
  <path class="cls-1" d="M372.49,185c0,99.39-80.57,179.95-179.95,179.95S12.58,284.39,12.58,185,93.15,5.05,192.54,5.05s179.95,80.57,179.95,179.95ZM246.96,298.51c34.73-1.59,59.98-32.08,59.96-65.02l-.05-96.8c-.02-37.69-30.57-66.24-68.16-66.12l-96.62.32c-36.7.12-63.93,30.98-63.92,67.22l.05,98.14c.42,33.03,30.21,62.48,62.44,62.67,35.63.21,69.54,1.28,106.29-.4Z"/>
  <path class="cls-1" d="M285.44,237.01c-.03,22.59-17.49,37.83-38.4,41.68l-106.49-.28c-23.35-.06-41.16-20.7-41.22-43.58l-.25-95.29c-.07-24.88,17.19-46.94,43.07-46.92l103.76.06c11.2,0,20.37,5.21,27.11,12.96.64.73,1.33,1.41,2.06,2.05,6.92,6.14,10.5,16.42,10.49,26.04l-.13,103.29ZM241.68,131.63c5.59,6.08,12.72,7.97,19.24,4.18,5.73-3.33,8.08-10.52,5.95-16.38-2.48-6.81-9.09-10.16-15.58-8.98-11.12,2.02-14.21,16.18-9.61,21.18ZM251.93,185.57c0-32.79-26.58-59.37-59.37-59.37s-59.37,26.58-59.37,59.37,26.58,59.37,59.37,59.37,59.37-26.58,59.37-59.37Z"/>
  <circle class="cls-1" cx="192.58" cy="185.57" r="38.39"/>
</svg>