<?xml version="1.0" encoding="UTF-8"?>
<svg id="Lag_1" data-name="Lag 1" xmlns="http://www.w3.org/2000/svg" viewBox="0 0 390 370">
  <defs>
    <style>
      .cls-1 {
        fill: none;
        stroke: #f1f1f1;
        stroke-miterlimit: 10;
        stroke-width: 13px;
      }
    </style>
  </defs>
  <path class="cls-1" d="M197.21,11.92c-11.97,11.65-30.94,27.36-57.53,39.88-32.37,15.25-61.75,19.03-79.9,19.95-.17,50.33-.31,96.35-.48,146.68,6.45,19.53,21.78,57.1,57.27,91.43,30.16,29.17,61.71,43.27,80.37,49.98,18.32-6.39,53.26-21.3,85.58-54.71,32.49-33.59,46.23-69.23,51.97-87.78.14-23.62.12-47.52-.06-71.69-.19-24.92.1-49.56-.42-73.9-16.42-.72-41.53-3.76-68.87-14.85-32.97-13.37-55.34-32.45-67.92-44.98Z"/>
  <polygon class="cls-1" points="141.86 239.09 252.01 239.09 252.01 158 224.47 158 141.86 158 141.86 239.09"/>
  <path class="cls-1" d="M167.17,158c-1.54-20.19,12.4-37.31,28.79-37.89,17.06-.61,32.31,16.85,30.74,37.89"/>
</svg>