<?xml version="1.0" encoding="UTF-8"?>
<svg id="Lag_1" data-name="Lag 1" xmlns="http://www.w3.org/2000/svg" viewBox="0 0 390 370">
  <defs>
    <style>
      .cls-1 {
        fill: #f1f1f1;
      }

      .cls-1, .cls-2 {
        stroke: #f1f1f1;
        stroke-miterlimit: 10;
      }

      .cls-2 {
        fill: none;
        stroke-width: 13px;
      }
    </style>
  </defs>
  <path class="cls-2" d="M104.54,289.62s.71,0-80.67.31c-5.52.02-10-4.48-10-10V101.81c0-5.52,4.48-10,10-10h342.26c5.52,0,10,4.48,10,10v178.11c0,5.52-4.48,10-10,10h-78.35"/>
  <polyline class="cls-2" points="104.54 219.33 104.54 335.81 284.31 336.27 284.31 280.86 284.31 277.8 284.31 219.33"/>
  <rect class="cls-1" x="85.74" y="204.96" width="217.38" height="16.89" rx="8.45" ry="8.45"/>
  <rect class="cls-1" x="119.95" y="236.75" width="109.38" height="7.64" rx="3.82" ry="3.82"/>
  <rect class="cls-1" x="119.95" y="256.66" width="146.48" height="7.64" rx="3.82" ry="3.82"/>
  <rect class="cls-1" x="118.97" y="276.58" width="63.08" height="7.64" rx="3.82" ry="3.82"/>
  <rect class="cls-1" x="118.97" y="296.49" width="125.14" height="7.64" rx="3.82" ry="3.82"/>
  <circle class="cls-1" cx="74.95" cy="145.32" r="14.9"/>
  <path class="cls-1" d="M189.7-40.32h20.46v221.68h-20.46c-5.44,0-9.86-4.42-9.86-9.86V-30.46c0-5.44,4.42-9.86,9.86-9.86Z" transform="translate(265.52 -124.48) rotate(90)"/>
</svg>