<?xml version="1.0" encoding="UTF-8"?>
<svg id="Lag_1" data-name="Lag 1" xmlns="http://www.w3.org/2000/svg" viewBox="0 0 390 370">
  <defs>
    <style>
      .cls-1 {
        fill: #f1f1f1;
      }

      .cls-1, .cls-2 {
        stroke: #f1f1f1;
        stroke-miterlimit: 10;
      }

      .cls-2 {
        fill: none;
        stroke-width: 13px;
      }
    </style>
  </defs>
  <path class="cls-2" d="M127.96,171.48l73.74,75.86c10.14.65,28.2.48,48.45-7.35,19-7.34,31.62-18.2,38.49-25.11,19.44-19.64,48.58-54.33,68.37-105.7,15.37-39.9,19.73-75.91,20.73-101.09-23.16-2.21-68.11-3.38-118.27,16.7-45.41,18.18-74.51,45.54-89.51,61.97-7.92,8.68-17.55,21.04-25.92,37.42-9.26,18.12-13.76,34.88-16.09,47.3Z"/>
  <path class="cls-2" d="M157.54,93.75c-46.86-30.84-96.8-7.58-117.61,23.91-.35.61.1.72,1.44.47,2.76-.54,5.6-1.11,9.09-1.57,30.25-4.41,63.51,4.4,88,23.96"/>
  <ellipse class="cls-2" cx="257.32" cy="120.55" rx="40.91" ry="42.63" transform="translate(-11.22 213.45) rotate(-44.19)"/>
  <path class="cls-2" d="M285.25,225.14c29.49,47.72,4.83,96.98-27.25,116.88-.62.33-.71-.12-.43-1.46.62-2.75,1.27-5.57,1.83-9.04,5.26-30.12-2.59-63.61-21.45-88.65"/>
  <path class="cls-2" d="M307.61,10.99c-.03,4.44.32,25.08,16.51,42.91,18.02,19.86,41.68,20.81,45.51,20.9"/>
  <path class="cls-1" d="M5.9,228.77l-.14-.5c-1.09-3.91,2.21-8.08,7.37-9.31l91.6-21.84c5.16-1.23,10.22.94,11.31,4.86l.14.5c1.09,3.91-2.21,8.08-7.37,9.31l-91.6,21.84c-5.16,1.23-10.22-.94-11.31-4.86Z"/>
  <rect class="cls-1" x="82.16" y="240" width="14.95" height="89.7" rx="7.47" ry="7.47" transform="translate(231.42 22.04) rotate(45.81)"/>
  <path class="cls-1" d="M142.19,368.84l.48.15c3.77,1.17,7.95-2.04,9.33-7.16l24.47-90.93c1.38-5.12-.56-10.22-4.34-11.39l-.48-.15c-3.77-1.17-7.95,2.04-9.33,7.16l-24.47,90.93c-1.38,5.12.56,10.22,4.34,11.39Z"/>
</svg>