<?xml version="1.0" encoding="UTF-8"?>
<svg id="Lag_1" data-name="Lag 1" xmlns="http://www.w3.org/2000/svg" viewBox="0 0 390 370">
  <defs>
    <style>
      .cls-1 {
        fill: none;
        stroke: #f1f1f1;
        stroke-miterlimit: 10;
        stroke-width: 13px;
      }
    </style>
  </defs>
  <circle class="cls-1" cx="312.29" cy="132.01" r="32.61"/>
  <circle class="cls-1" cx="76.77" cy="132.01" r="32.61"/>
  <path class="cls-1" d="M308.97,183.33c-27.4,1.25-51.38,18.86-62.21,43.63-15.7-9.91-34.23-15.3-53.57-14.42-18.27.83-35.39,7.17-49.71,17.46-11.05-28.43-39.19-48.08-70.04-46.67-36.77,1.68-67.41,32.82-68.31,71.21-.02,1,.77,1.82,1.77,1.82h111.53c-9.38,14.53-15.05,31.75-15.48,50.25-.03,1.31,1.02,2.4,2.34,2.4h184.59c1.32,0,2.37-1.09,2.34-2.41-.48-18.57-6.22-35.77-15.65-50.25h105.61c1,0,1.79-.83,1.77-1.83-1.06-40.9-35.84-72.99-74.96-71.21Z"/>
  <circle class="cls-1" cx="197.58" cy="153.91" r="43.08"/>
  <path class="cls-1" d="M289.87,309.87c1.32,0,2.37-1.09,2.34-2.41-1.39-54.03-47.34-96.42-99.02-94.06-48.57,2.22-89.04,43.35-90.24,94.07-.03,1.31,1.02,2.4,2.34,2.4h184.59Z"/>
</svg>